<?xml version="1.0" encoding="UTF-8" standalone="no"?>
<!DOCTYPE svg PUBLIC "-//W3C//DTD SVG 1.1//EN"
 "http://www.w3.org/Graphics/SVG/1.1/DTD/svg11.dtd">
<!-- Generated by graphviz version 2.47.0 (20210316.0004)
 -->
<!-- Title: dependencies Pages: 1 -->
<svg width="2085pt" height="284pt"
 viewBox="0.00 0.00 2085.00 284.00" xmlns="http://www.w3.org/2000/svg" xmlns:xlink="http://www.w3.org/1999/xlink">
<g id="graph0" class="graph" transform="scale(1 1) rotate(0) translate(4 280)">
<title>dependencies</title>
<polygon fill="white" stroke="transparent" points="-4,4 -4,-280 2081,-280 2081,4 -4,4"/>
<text text-anchor="start" x="1017.51" y="-42.4" font-family="Times-12" font-weight="bold" font-size="14.00">Legend</text>
<polygon fill="#ffffb3" stroke="transparent" points="804.5,-10 804.5,-30 824.5,-30 824.5,-10 804.5,-10"/>
<text text-anchor="start" x="828.13" y="-15.4" font-family="Times-12" font-size="14.00"> &#160;Declarations</text>
<polygon fill="#8dd3c7" stroke="transparent" points="917.5,-10 917.5,-30 937.5,-30 937.5,-10 917.5,-10"/>
<text text-anchor="start" x="941.23" y="-15.4" font-family="Times-12" font-size="14.00"> &#160;Module</text>
<polygon fill="#80b1d3" stroke="transparent" points="1003.5,-10 1003.5,-30 1023.5,-30 1023.5,-10 1003.5,-10"/>
<text text-anchor="start" x="1027.28" y="-15.4" font-family="Times-12" font-size="14.00"> &#160;Bootstrap</text>
<polygon fill="#fdb462" stroke="transparent" points="1100.5,-10 1100.5,-30 1120.5,-30 1120.5,-10 1100.5,-10"/>
<text text-anchor="start" x="1124.17" y="-15.4" font-family="Times-12" font-size="14.00"> &#160;Providers</text>
<polygon fill="#fb8072" stroke="transparent" points="1196.5,-10 1196.5,-30 1216.5,-30 1216.5,-10 1196.5,-10"/>
<text text-anchor="start" x="1220.23" y="-15.4" font-family="Times-12" font-size="14.00"> &#160;Exports</text>
<g id="clust1" class="cluster">
<title>cluster_RootModule</title>
<polygon fill="none" stroke="black" stroke-dasharray="1,5" points="8,-70 8,-268 2069,-268 2069,-70 8,-70"/>
</g>
<g id="clust18" class="cluster">
<title>cluster_RootModule_providers</title>
<polygon fill="none" stroke="black" points="1802,-78 1802,-130 2061,-130 2061,-78 1802,-78"/>
</g>
<g id="clust17" class="cluster">
<title>cluster_RootModule_bootstrap</title>
<polygon fill="none" stroke="black" points="983,-208 983,-260 1111,-260 1111,-208 983,-208"/>
</g>
<g id="clust2" class="cluster">
<title>cluster_RootModule_declarations</title>
<polygon fill="none" stroke="black" points="172,-78 172,-130 1794,-130 1794,-78 172,-78"/>
</g>
<g id="clust15" class="cluster">
<title>cluster_RootModule_imports</title>
<polygon fill="none" stroke="black" points="16,-78 16,-130 164,-130 164,-78 16,-78"/>
</g>
<!-- CheckComponent -->
<g id="node1" class="node">
<title>CheckComponent</title>
<polygon fill="#ffffb3" stroke="black" points="1785.6,-122 1668.4,-122 1668.4,-86 1785.6,-86 1785.6,-122"/>
<text text-anchor="middle" x="1727" y="-99.8" font-family="Times,serif" font-size="14.00">CheckComponent</text>
</g>
<!-- RootModule -->
<g id="node13" class="node">
<title>RootModule</title>
<polygon fill="#8dd3c7" stroke="black" points="1090.28,-187 1087.28,-191 1066.28,-191 1063.28,-187 1003.72,-187 1003.72,-151 1090.28,-151 1090.28,-187"/>
<text text-anchor="middle" x="1047" y="-164.8" font-family="Times,serif" font-size="14.00">RootModule</text>
</g>
<!-- CheckComponent&#45;&gt;RootModule -->
<g id="edge1" class="edge">
<title>CheckComponent&#45;&gt;RootModule</title>
<path fill="none" stroke="black" d="M1727,-122.03C1727,-142.77 1727,-174 1727,-174 1727,-174 1100.31,-174 1100.31,-174"/>
<polygon fill="black" stroke="black" points="1100.31,-170.5 1090.31,-174 1100.31,-177.5 1100.31,-170.5"/>
</g>
<!-- ExamComponent -->
<g id="node2" class="node">
<title>ExamComponent</title>
<polygon fill="#ffffb3" stroke="black" points="1649.99,-122 1536.01,-122 1536.01,-86 1649.99,-86 1649.99,-122"/>
<text text-anchor="middle" x="1593" y="-99.8" font-family="Times,serif" font-size="14.00">ExamComponent</text>
</g>
<!-- ExamComponent&#45;&gt;RootModule -->
<g id="edge2" class="edge">
<title>ExamComponent&#45;&gt;RootModule</title>
<path fill="none" stroke="black" d="M1593,-122.11C1593,-141.34 1593,-169 1593,-169 1593,-169 1100.3,-169 1100.3,-169"/>
<polygon fill="black" stroke="black" points="1100.3,-165.5 1090.3,-169 1100.3,-172.5 1100.3,-165.5"/>
</g>
<!-- FooterComponent -->
<g id="node3" class="node">
<title>FooterComponent</title>
<polygon fill="#ffffb3" stroke="black" points="1517.88,-122 1400.12,-122 1400.12,-86 1517.88,-86 1517.88,-122"/>
<text text-anchor="middle" x="1459" y="-99.8" font-family="Times,serif" font-size="14.00">FooterComponent</text>
</g>
<!-- FooterComponent&#45;&gt;RootModule -->
<g id="edge3" class="edge">
<title>FooterComponent&#45;&gt;RootModule</title>
<path fill="none" stroke="black" d="M1459,-122.3C1459,-140.27 1459,-165 1459,-165 1459,-165 1100.31,-165 1100.31,-165"/>
<polygon fill="black" stroke="black" points="1100.31,-161.5 1090.31,-165 1100.31,-168.5 1100.31,-161.5"/>
</g>
<!-- HeaderComponent -->
<g id="node4" class="node">
<title>HeaderComponent</title>
<polygon fill="#ffffb3" stroke="black" points="1381.74,-122 1260.26,-122 1260.26,-86 1381.74,-86 1381.74,-122"/>
<text text-anchor="middle" x="1321" y="-99.8" font-family="Times,serif" font-size="14.00">HeaderComponent</text>
</g>
<!-- HeaderComponent&#45;&gt;RootModule -->
<g id="edge4" class="edge">
<title>HeaderComponent&#45;&gt;RootModule</title>
<path fill="none" stroke="black" d="M1321,-122.03C1321,-138.4 1321,-160 1321,-160 1321,-160 1100.42,-160 1100.42,-160"/>
<polygon fill="black" stroke="black" points="1100.42,-156.5 1090.42,-160 1100.42,-163.5 1100.42,-156.5"/>
</g>
<!-- HomeComponent -->
<g id="node5" class="node">
<title>HomeComponent</title>
<polygon fill="#ffffb3" stroke="black" points="1241.55,-122 1126.45,-122 1126.45,-86 1241.55,-86 1241.55,-122"/>
<text text-anchor="middle" x="1184" y="-99.8" font-family="Times,serif" font-size="14.00">HomeComponent</text>
</g>
<!-- HomeComponent&#45;&gt;RootModule -->
<g id="edge5" class="edge">
<title>HomeComponent&#45;&gt;RootModule</title>
<path fill="none" stroke="black" d="M1184,-122.19C1184,-137.18 1184,-156 1184,-156 1184,-156 1100.35,-156 1100.35,-156"/>
<polygon fill="black" stroke="black" points="1100.35,-152.5 1090.35,-156 1100.35,-159.5 1100.35,-152.5"/>
</g>
<!-- ImprintComponent -->
<g id="node6" class="node">
<title>ImprintComponent</title>
<polygon fill="#ffffb3" stroke="black" points="1108.83,-122 985.17,-122 985.17,-86 1108.83,-86 1108.83,-122"/>
<text text-anchor="middle" x="1047" y="-99.8" font-family="Times,serif" font-size="14.00">ImprintComponent</text>
</g>
<!-- ImprintComponent&#45;&gt;RootModule -->
<g id="edge6" class="edge">
<title>ImprintComponent&#45;&gt;RootModule</title>
<path fill="none" stroke="black" d="M1047,-122.11C1047,-122.11 1047,-140.99 1047,-140.99"/>
<polygon fill="black" stroke="black" points="1043.5,-140.99 1047,-150.99 1050.5,-140.99 1043.5,-140.99"/>
</g>
<!-- LearnComponent -->
<g id="node7" class="node">
<title>LearnComponent</title>
<polygon fill="#ffffb3" stroke="black" points="966.97,-122 853.03,-122 853.03,-86 966.97,-86 966.97,-122"/>
<text text-anchor="middle" x="910" y="-99.8" font-family="Times,serif" font-size="14.00">LearnComponent</text>
</g>
<!-- LearnComponent&#45;&gt;RootModule -->
<g id="edge7" class="edge">
<title>LearnComponent&#45;&gt;RootModule</title>
<path fill="none" stroke="black" d="M910,-122.19C910,-137.18 910,-156 910,-156 910,-156 993.65,-156 993.65,-156"/>
<polygon fill="black" stroke="black" points="993.65,-159.5 1003.65,-156 993.65,-152.5 993.65,-159.5"/>
</g>
<!-- LoginComponent -->
<g id="node8" class="node">
<title>LoginComponent</title>
<polygon fill="#ffffb3" stroke="black" points="835.28,-122 720.72,-122 720.72,-86 835.28,-86 835.28,-122"/>
<text text-anchor="middle" x="778" y="-99.8" font-family="Times,serif" font-size="14.00">LoginComponent</text>
</g>
<!-- LoginComponent&#45;&gt;RootModule -->
<g id="edge8" class="edge">
<title>LoginComponent&#45;&gt;RootModule</title>
<path fill="none" stroke="black" d="M778,-122.03C778,-138.4 778,-160 778,-160 778,-160 993.48,-160 993.48,-160"/>
<polygon fill="black" stroke="black" points="993.48,-163.5 1003.48,-160 993.48,-156.5 993.48,-163.5"/>
</g>
<!-- PrivacyComponent -->
<g id="node9" class="node">
<title>PrivacyComponent</title>
<polygon fill="#ffffb3" stroke="black" points="703.1,-122 578.9,-122 578.9,-86 703.1,-86 703.1,-122"/>
<text text-anchor="middle" x="641" y="-99.8" font-family="Times,serif" font-size="14.00">PrivacyComponent</text>
</g>
<!-- PrivacyComponent&#45;&gt;RootModule -->
<g id="edge9" class="edge">
<title>PrivacyComponent&#45;&gt;RootModule</title>
<path fill="none" stroke="black" d="M641,-122.3C641,-140.27 641,-165 641,-165 641,-165 993.55,-165 993.55,-165"/>
<polygon fill="black" stroke="black" points="993.55,-168.5 1003.55,-165 993.55,-161.5 993.55,-168.5"/>
</g>
<!-- RegisterComponent -->
<g id="node10" class="node">
<title>RegisterComponent</title>
<polygon fill="#ffffb3" stroke="black" points="560.98,-122 433.02,-122 433.02,-86 560.98,-86 560.98,-122"/>
<text text-anchor="middle" x="497" y="-99.8" font-family="Times,serif" font-size="14.00">RegisterComponent</text>
</g>
<!-- RegisterComponent&#45;&gt;RootModule -->
<g id="edge10" class="edge">
<title>RegisterComponent&#45;&gt;RootModule</title>
<path fill="none" stroke="black" d="M497,-122.11C497,-141.34 497,-169 497,-169 497,-169 993.38,-169 993.38,-169"/>
<polygon fill="black" stroke="black" points="993.38,-172.5 1003.38,-169 993.38,-165.5 993.38,-172.5"/>
</g>
<!-- RootComponent -->
<g id="node11" class="node">
<title>RootComponent</title>
<polygon fill="#ffffb3" stroke="black" points="415.06,-122 306.94,-122 306.94,-86 415.06,-86 415.06,-122"/>
<text text-anchor="middle" x="361" y="-99.8" font-family="Times,serif" font-size="14.00">RootComponent</text>
</g>
<!-- RootComponent&#45;&gt;RootModule -->
<g id="edge11" class="edge">
<title>RootComponent&#45;&gt;RootModule</title>
<path fill="none" stroke="black" d="M361,-122.03C361,-142.77 361,-174 361,-174 361,-174 993.57,-174 993.57,-174"/>
<polygon fill="black" stroke="black" points="993.57,-177.5 1003.57,-174 993.57,-170.5 993.57,-177.5"/>
</g>
<!-- TaskComponent -->
<g id="node12" class="node">
<title>TaskComponent</title>
<polygon fill="#ffffb3" stroke="black" points="288.05,-122 179.95,-122 179.95,-86 288.05,-86 288.05,-122"/>
<text text-anchor="middle" x="234" y="-99.8" font-family="Times,serif" font-size="14.00">TaskComponent</text>
</g>
<!-- TaskComponent&#45;&gt;RootModule -->
<g id="edge12" class="edge">
<title>TaskComponent&#45;&gt;RootModule</title>
<path fill="none" stroke="black" d="M234,-122.29C234,-144.21 234,-178 234,-178 234,-178 993.58,-178 993.58,-178"/>
<polygon fill="black" stroke="black" points="993.58,-181.5 1003.58,-178 993.58,-174.5 993.58,-181.5"/>
</g>
<!-- RootComponent  -->
<g id="node15" class="node">
<title>RootComponent </title>
<polygon fill="#80b1d3" stroke="black" points="1103.06,-252 990.94,-252 990.94,-216 1103.06,-216 1103.06,-252"/>
<text text-anchor="middle" x="1047" y="-229.8" font-family="Times,serif" font-size="14.00">RootComponent </text>
</g>
<!-- RootModule&#45;&gt;RootComponent  -->
<g id="edge14" class="edge">
<title>RootModule&#45;&gt;RootComponent </title>
<path fill="none" stroke="black" stroke-dasharray="1,5" d="M1047,-187.11C1047,-187.11 1047,-205.99 1047,-205.99"/>
<polygon fill="black" stroke="black" points="1043.5,-205.99 1047,-215.99 1050.5,-205.99 1043.5,-205.99"/>
</g>
<!-- RootRoutingModule -->
<g id="node14" class="node">
<title>RootRoutingModule</title>
<polygon fill="#8dd3c7" stroke="black" points="155.89,-122 152.89,-126 131.89,-126 128.89,-122 24.11,-122 24.11,-86 155.89,-86 155.89,-122"/>
<text text-anchor="middle" x="90" y="-99.8" font-family="Times,serif" font-size="14.00">RootRoutingModule</text>
</g>
<!-- RootRoutingModule&#45;&gt;RootModule -->
<g id="edge13" class="edge">
<title>RootRoutingModule&#45;&gt;RootModule</title>
<path fill="none" stroke="black" d="M90,-122.32C90,-145.66 90,-183 90,-183 90,-183 993.71,-183 993.71,-183"/>
<polygon fill="black" stroke="black" points="993.71,-186.5 1003.71,-183 993.71,-179.5 993.71,-186.5"/>
</g>
<!-- ApiService -->
<g id="node16" class="node">
<title>ApiService</title>
<ellipse fill="#fdb462" stroke="black" cx="1999" cy="-104" rx="54.45" ry="18"/>
<text text-anchor="middle" x="1999" y="-99.8" font-family="Times,serif" font-size="14.00">ApiService</text>
</g>
<!-- ApiService&#45;&gt;RootModule -->
<g id="edge15" class="edge">
<title>ApiService&#45;&gt;RootModule</title>
<path fill="none" stroke="black" d="M1999,-122.32C1999,-145.66 1999,-183 1999,-183 1999,-183 1100.38,-183 1100.38,-183"/>
<polygon fill="black" stroke="black" points="1100.38,-179.5 1090.38,-183 1100.38,-186.5 1100.38,-179.5"/>
</g>
<!-- UserService -->
<g id="node17" class="node">
<title>UserService</title>
<ellipse fill="#fdb462" stroke="black" cx="1868" cy="-104" rx="58.44" ry="18"/>
<text text-anchor="middle" x="1868" y="-99.8" font-family="Times,serif" font-size="14.00">UserService</text>
</g>
<!-- UserService&#45;&gt;RootModule -->
<g id="edge16" class="edge">
<title>UserService&#45;&gt;RootModule</title>
<path fill="none" stroke="black" d="M1868,-122.29C1868,-144.21 1868,-178 1868,-178 1868,-178 1100.56,-178 1100.56,-178"/>
<polygon fill="black" stroke="black" points="1100.56,-174.5 1090.56,-178 1100.56,-181.5 1100.56,-174.5"/>
</g>
</g>
</svg>
