<?xml version="1.0" encoding="UTF-8" standalone="no"?>
<!DOCTYPE svg PUBLIC "-//W3C//DTD SVG 1.1//EN"
 "http://www.w3.org/Graphics/SVG/1.1/DTD/svg11.dtd">
<!-- Generated by graphviz version 2.47.0 (20210316.0004)
 -->
<!-- Title: dependencies Pages: 1 -->
<svg width="2085pt" height="284pt"
 viewBox="0.00 0.00 2085.00 284.00" xmlns="http://www.w3.org/2000/svg" xmlns:xlink="http://www.w3.org/1999/xlink">
<g id="graph0" class="graph" transform="scale(1 1) rotate(0) translate(4 280)">
<title>dependencies</title>
<polygon fill="white" stroke="transparent" points="-4,4 -4,-280 2081,-280 2081,4 -4,4"/>
<text text-anchor="start" x="1017.51" y="-42.4" font-family="Times-12" font-weight="bold" font-size="14.00">Legend</text>
<polygon fill="#ffffb3" stroke="transparent" points="804.5,-10 804.5,-30 824.5,-30 824.5,-10 804.5,-10"/>
<text text-anchor="start" x="828.13" y="-15.4" font-family="Times-12" font-size="14.00"> &#160;Declarations</text>
<polygon fill="#8dd3c7" stroke="transparent" points="917.5,-10 917.5,-30 937.5,-30 937.5,-10 917.5,-10"/>
<text text-anchor="start" x="941.23" y="-15.4" font-family="Times-12" font-size="14.00"> &#160;Module</text>
<polygon fill="#80b1d3" stroke="transparent" points="1003.5,-10 1003.5,-30 1023.5,-30 1023.5,-10 1003.5,-10"/>
<text text-anchor="start" x="1027.28" y="-15.4" font-family="Times-12" font-size="14.00"> &#160;Bootstrap</text>
<polygon fill="#fdb462" stroke="transparent" points="1100.5,-10 1100.5,-30 1120.5,-30 1120.5,-10 1100.5,-10"/>
<text text-anchor="start" x="1124.17" y="-15.4" font-family="Times-12" font-size="14.00"> &#160;Providers</text>
<polygon fill="#fb8072" stroke="transparent" points="1196.5,-10 1196.5,-30 1216.5,-30 1216.5,-10 1196.5,-10"/>
<text text-anchor="start" x="1220.23" y="-15.4" font-family="Times-12" font-size="14.00"> &#160;Exports</text>
<g id="clust1" class="cluster">
<title>cluster_RootModule</title>
<polygon fill="none" stroke="black" stroke-dasharray="1,5" points="8,-70 8,-268 2069,-268 2069,-70 8,-70"/>
</g>
<g id="clust15" class="cluster">
<title>cluster_RootModule_imports</title>
<polygon fill="none" stroke="black" points="1913,-78 1913,-130 2061,-130 2061,-78 1913,-78"/>
</g>
<g id="clust17" class="cluster">
<title>cluster_RootModule_bootstrap</title>
<polygon fill="none" stroke="black" points="964,-208 964,-260 1092,-260 1092,-208 964,-208"/>
</g>
<g id="clust18" class="cluster">
<title>cluster_RootModule_providers</title>
<polygon fill="none" stroke="black" points="1646,-78 1646,-130 1905,-130 1905,-78 1646,-78"/>
</g>
<g id="clust2" class="cluster">
<title>cluster_RootModule_declarations</title>
<polygon fill="none" stroke="black" points="16,-78 16,-130 1638,-130 1638,-78 16,-78"/>
</g>
<!-- CheckComponent -->
<g id="node1" class="node">
<title>CheckComponent</title>
<polygon fill="#ffffb3" stroke="black" points="1629.6,-122 1512.4,-122 1512.4,-86 1629.6,-86 1629.6,-122"/>
<text text-anchor="middle" x="1571" y="-99.8" font-family="Times,serif" font-size="14.00">CheckComponent</text>
</g>
<!-- RootModule -->
<g id="node13" class="node">
<title>RootModule</title>
<polygon fill="#8dd3c7" stroke="black" points="1071.28,-187 1068.28,-191 1047.28,-191 1044.28,-187 984.72,-187 984.72,-151 1071.28,-151 1071.28,-187"/>
<text text-anchor="middle" x="1028" y="-164.8" font-family="Times,serif" font-size="14.00">RootModule</text>
</g>
<!-- CheckComponent&#45;&gt;RootModule -->
<g id="edge1" class="edge">
<title>CheckComponent&#45;&gt;RootModule</title>
<path fill="none" stroke="black" d="M1571,-122.11C1571,-141.34 1571,-169 1571,-169 1571,-169 1081.52,-169 1081.52,-169"/>
<polygon fill="black" stroke="black" points="1081.52,-165.5 1071.52,-169 1081.52,-172.5 1081.52,-165.5"/>
</g>
<!-- ExamComponent -->
<g id="node2" class="node">
<title>ExamComponent</title>
<polygon fill="#ffffb3" stroke="black" points="1493.99,-122 1380.01,-122 1380.01,-86 1493.99,-86 1493.99,-122"/>
<text text-anchor="middle" x="1437" y="-99.8" font-family="Times,serif" font-size="14.00">ExamComponent</text>
</g>
<!-- ExamComponent&#45;&gt;RootModule -->
<g id="edge2" class="edge">
<title>ExamComponent&#45;&gt;RootModule</title>
<path fill="none" stroke="black" d="M1437,-122.3C1437,-140.27 1437,-165 1437,-165 1437,-165 1081.38,-165 1081.38,-165"/>
<polygon fill="black" stroke="black" points="1081.38,-161.5 1071.38,-165 1081.38,-168.5 1081.38,-161.5"/>
</g>
<!-- FooterComponent -->
<g id="node3" class="node">
<title>FooterComponent</title>
<polygon fill="#ffffb3" stroke="black" points="1361.88,-122 1244.12,-122 1244.12,-86 1361.88,-86 1361.88,-122"/>
<text text-anchor="middle" x="1303" y="-99.8" font-family="Times,serif" font-size="14.00">FooterComponent</text>
</g>
<!-- FooterComponent&#45;&gt;RootModule -->
<g id="edge3" class="edge">
<title>FooterComponent&#45;&gt;RootModule</title>
<path fill="none" stroke="black" d="M1303,-122.03C1303,-138.4 1303,-160 1303,-160 1303,-160 1081.57,-160 1081.57,-160"/>
<polygon fill="black" stroke="black" points="1081.57,-156.5 1071.57,-160 1081.57,-163.5 1081.57,-156.5"/>
</g>
<!-- HeaderComponent -->
<g id="node4" class="node">
<title>HeaderComponent</title>
<polygon fill="#ffffb3" stroke="black" points="1225.74,-122 1104.26,-122 1104.26,-86 1225.74,-86 1225.74,-122"/>
<text text-anchor="middle" x="1165" y="-99.8" font-family="Times,serif" font-size="14.00">HeaderComponent</text>
</g>
<!-- HeaderComponent&#45;&gt;RootModule -->
<g id="edge4" class="edge">
<title>HeaderComponent&#45;&gt;RootModule</title>
<path fill="none" stroke="black" d="M1165,-122.19C1165,-137.18 1165,-156 1165,-156 1165,-156 1081.35,-156 1081.35,-156"/>
<polygon fill="black" stroke="black" points="1081.35,-152.5 1071.35,-156 1081.35,-159.5 1081.35,-152.5"/>
</g>
<!-- HomeComponent -->
<g id="node5" class="node">
<title>HomeComponent</title>
<polygon fill="#ffffb3" stroke="black" points="1085.55,-122 970.45,-122 970.45,-86 1085.55,-86 1085.55,-122"/>
<text text-anchor="middle" x="1028" y="-99.8" font-family="Times,serif" font-size="14.00">HomeComponent</text>
</g>
<!-- HomeComponent&#45;&gt;RootModule -->
<g id="edge5" class="edge">
<title>HomeComponent&#45;&gt;RootModule</title>
<path fill="none" stroke="black" d="M1028,-122.11C1028,-122.11 1028,-140.99 1028,-140.99"/>
<polygon fill="black" stroke="black" points="1024.5,-140.99 1028,-150.99 1031.5,-140.99 1024.5,-140.99"/>
</g>
<!-- ImprintComponent -->
<g id="node6" class="node">
<title>ImprintComponent</title>
<polygon fill="#ffffb3" stroke="black" points="952.83,-122 829.17,-122 829.17,-86 952.83,-86 952.83,-122"/>
<text text-anchor="middle" x="891" y="-99.8" font-family="Times,serif" font-size="14.00">ImprintComponent</text>
</g>
<!-- ImprintComponent&#45;&gt;RootModule -->
<g id="edge6" class="edge">
<title>ImprintComponent&#45;&gt;RootModule</title>
<path fill="none" stroke="black" d="M891,-122.19C891,-137.18 891,-156 891,-156 891,-156 974.65,-156 974.65,-156"/>
<polygon fill="black" stroke="black" points="974.65,-159.5 984.65,-156 974.65,-152.5 974.65,-159.5"/>
</g>
<!-- LearnComponent -->
<g id="node7" class="node">
<title>LearnComponent</title>
<polygon fill="#ffffb3" stroke="black" points="810.97,-122 697.03,-122 697.03,-86 810.97,-86 810.97,-122"/>
<text text-anchor="middle" x="754" y="-99.8" font-family="Times,serif" font-size="14.00">LearnComponent</text>
</g>
<!-- LearnComponent&#45;&gt;RootModule -->
<g id="edge7" class="edge">
<title>LearnComponent&#45;&gt;RootModule</title>
<path fill="none" stroke="black" d="M754,-122.03C754,-138.4 754,-160 754,-160 754,-160 974.58,-160 974.58,-160"/>
<polygon fill="black" stroke="black" points="974.58,-163.5 984.58,-160 974.58,-156.5 974.58,-163.5"/>
</g>
<!-- LoginComponent -->
<g id="node8" class="node">
<title>LoginComponent</title>
<polygon fill="#ffffb3" stroke="black" points="679.28,-122 564.72,-122 564.72,-86 679.28,-86 679.28,-122"/>
<text text-anchor="middle" x="622" y="-99.8" font-family="Times,serif" font-size="14.00">LoginComponent</text>
</g>
<!-- LoginComponent&#45;&gt;RootModule -->
<g id="edge8" class="edge">
<title>LoginComponent&#45;&gt;RootModule</title>
<path fill="none" stroke="black" d="M622,-122.3C622,-140.27 622,-165 622,-165 622,-165 974.55,-165 974.55,-165"/>
<polygon fill="black" stroke="black" points="974.55,-168.5 984.55,-165 974.55,-161.5 974.55,-168.5"/>
</g>
<!-- PrivacyComponent -->
<g id="node9" class="node">
<title>PrivacyComponent</title>
<polygon fill="#ffffb3" stroke="black" points="547.1,-122 422.9,-122 422.9,-86 547.1,-86 547.1,-122"/>
<text text-anchor="middle" x="485" y="-99.8" font-family="Times,serif" font-size="14.00">PrivacyComponent</text>
</g>
<!-- PrivacyComponent&#45;&gt;RootModule -->
<g id="edge9" class="edge">
<title>PrivacyComponent&#45;&gt;RootModule</title>
<path fill="none" stroke="black" d="M485,-122.11C485,-141.34 485,-169 485,-169 485,-169 974.48,-169 974.48,-169"/>
<polygon fill="black" stroke="black" points="974.48,-172.5 984.48,-169 974.48,-165.5 974.48,-172.5"/>
</g>
<!-- RegisterComponent -->
<g id="node10" class="node">
<title>RegisterComponent</title>
<polygon fill="#ffffb3" stroke="black" points="404.98,-122 277.02,-122 277.02,-86 404.98,-86 404.98,-122"/>
<text text-anchor="middle" x="341" y="-99.8" font-family="Times,serif" font-size="14.00">RegisterComponent</text>
</g>
<!-- RegisterComponent&#45;&gt;RootModule -->
<g id="edge10" class="edge">
<title>RegisterComponent&#45;&gt;RootModule</title>
<path fill="none" stroke="black" d="M341,-122.03C341,-142.77 341,-174 341,-174 341,-174 974.5,-174 974.5,-174"/>
<polygon fill="black" stroke="black" points="974.5,-177.5 984.5,-174 974.5,-170.5 974.5,-177.5"/>
</g>
<!-- RootComponent -->
<g id="node11" class="node">
<title>RootComponent</title>
<polygon fill="#ffffb3" stroke="black" points="259.06,-122 150.94,-122 150.94,-86 259.06,-86 259.06,-122"/>
<text text-anchor="middle" x="205" y="-99.8" font-family="Times,serif" font-size="14.00">RootComponent</text>
</g>
<!-- RootComponent&#45;&gt;RootModule -->
<g id="edge11" class="edge">
<title>RootComponent&#45;&gt;RootModule</title>
<path fill="none" stroke="black" d="M205,-122.29C205,-144.21 205,-178 205,-178 205,-178 974.62,-178 974.62,-178"/>
<polygon fill="black" stroke="black" points="974.62,-181.5 984.62,-178 974.62,-174.5 974.62,-181.5"/>
</g>
<!-- TaskComponent -->
<g id="node12" class="node">
<title>TaskComponent</title>
<polygon fill="#ffffb3" stroke="black" points="132.05,-122 23.95,-122 23.95,-86 132.05,-86 132.05,-122"/>
<text text-anchor="middle" x="78" y="-99.8" font-family="Times,serif" font-size="14.00">TaskComponent</text>
</g>
<!-- TaskComponent&#45;&gt;RootModule -->
<g id="edge12" class="edge">
<title>TaskComponent&#45;&gt;RootModule</title>
<path fill="none" stroke="black" d="M78,-122.32C78,-145.66 78,-183 78,-183 78,-183 974.71,-183 974.71,-183"/>
<polygon fill="black" stroke="black" points="974.71,-186.5 984.71,-183 974.71,-179.5 974.71,-186.5"/>
</g>
<!-- RootComponent  -->
<g id="node15" class="node">
<title>RootComponent </title>
<polygon fill="#80b1d3" stroke="black" points="1084.06,-252 971.94,-252 971.94,-216 1084.06,-216 1084.06,-252"/>
<text text-anchor="middle" x="1028" y="-229.8" font-family="Times,serif" font-size="14.00">RootComponent </text>
</g>
<!-- RootModule&#45;&gt;RootComponent  -->
<g id="edge14" class="edge">
<title>RootModule&#45;&gt;RootComponent </title>
<path fill="none" stroke="black" stroke-dasharray="1,5" d="M1028,-187.11C1028,-187.11 1028,-205.99 1028,-205.99"/>
<polygon fill="black" stroke="black" points="1024.5,-205.99 1028,-215.99 1031.5,-205.99 1024.5,-205.99"/>
</g>
<!-- RootRoutingModule -->
<g id="node14" class="node">
<title>RootRoutingModule</title>
<polygon fill="#8dd3c7" stroke="black" points="2052.89,-122 2049.89,-126 2028.89,-126 2025.89,-122 1921.11,-122 1921.11,-86 2052.89,-86 2052.89,-122"/>
<text text-anchor="middle" x="1987" y="-99.8" font-family="Times,serif" font-size="14.00">RootRoutingModule</text>
</g>
<!-- RootRoutingModule&#45;&gt;RootModule -->
<g id="edge13" class="edge">
<title>RootRoutingModule&#45;&gt;RootModule</title>
<path fill="none" stroke="black" d="M1987,-122.32C1987,-145.66 1987,-183 1987,-183 1987,-183 1081.38,-183 1081.38,-183"/>
<polygon fill="black" stroke="black" points="1081.38,-179.5 1071.38,-183 1081.38,-186.5 1081.38,-179.5"/>
</g>
<!-- ApiService -->
<g id="node16" class="node">
<title>ApiService</title>
<ellipse fill="#fdb462" stroke="black" cx="1843" cy="-104" rx="54.45" ry="18"/>
<text text-anchor="middle" x="1843" y="-99.8" font-family="Times,serif" font-size="14.00">ApiService</text>
</g>
<!-- ApiService&#45;&gt;RootModule -->
<g id="edge15" class="edge">
<title>ApiService&#45;&gt;RootModule</title>
<path fill="none" stroke="black" d="M1843,-122.29C1843,-144.21 1843,-178 1843,-178 1843,-178 1081.53,-178 1081.53,-178"/>
<polygon fill="black" stroke="black" points="1081.53,-174.5 1071.53,-178 1081.53,-181.5 1081.53,-174.5"/>
</g>
<!-- UserService -->
<g id="node17" class="node">
<title>UserService</title>
<ellipse fill="#fdb462" stroke="black" cx="1712" cy="-104" rx="58.44" ry="18"/>
<text text-anchor="middle" x="1712" y="-99.8" font-family="Times,serif" font-size="14.00">UserService</text>
</g>
<!-- UserService&#45;&gt;RootModule -->
<g id="edge16" class="edge">
<title>UserService&#45;&gt;RootModule</title>
<path fill="none" stroke="black" d="M1712,-122.03C1712,-142.77 1712,-174 1712,-174 1712,-174 1081.31,-174 1081.31,-174"/>
<polygon fill="black" stroke="black" points="1081.31,-170.5 1071.31,-174 1081.31,-177.5 1081.31,-170.5"/>
</g>
</g>
</svg>
