<?xml version="1.0" encoding="UTF-8" standalone="no"?>
<!DOCTYPE svg PUBLIC "-//W3C//DTD SVG 1.1//EN"
 "http://www.w3.org/Graphics/SVG/1.1/DTD/svg11.dtd">
<!-- Generated by graphviz version 2.47.0 (20210316.0004)
 -->
<!-- Title: dependencies Pages: 1 -->
<svg width="1690pt" height="284pt"
 viewBox="0.00 0.00 1690.00 284.00" xmlns="http://www.w3.org/2000/svg" xmlns:xlink="http://www.w3.org/1999/xlink">
<g id="graph0" class="graph" transform="scale(1 1) rotate(0) translate(4 280)">
<title>dependencies</title>
<polygon fill="white" stroke="transparent" points="-4,4 -4,-280 1686,-280 1686,4 -4,4"/>
<text text-anchor="start" x="820.01" y="-42.4" font-family="Times-12" font-weight="bold" font-size="14.00">Legend</text>
<polygon fill="#ffffb3" stroke="transparent" points="607,-10 607,-30 627,-30 627,-10 607,-10"/>
<text text-anchor="start" x="630.63" y="-15.4" font-family="Times-12" font-size="14.00"> &#160;Declarations</text>
<polygon fill="#8dd3c7" stroke="transparent" points="720,-10 720,-30 740,-30 740,-10 720,-10"/>
<text text-anchor="start" x="743.73" y="-15.4" font-family="Times-12" font-size="14.00"> &#160;Module</text>
<polygon fill="#80b1d3" stroke="transparent" points="806,-10 806,-30 826,-30 826,-10 806,-10"/>
<text text-anchor="start" x="829.78" y="-15.4" font-family="Times-12" font-size="14.00"> &#160;Bootstrap</text>
<polygon fill="#fdb462" stroke="transparent" points="903,-10 903,-30 923,-30 923,-10 903,-10"/>
<text text-anchor="start" x="926.67" y="-15.4" font-family="Times-12" font-size="14.00"> &#160;Providers</text>
<polygon fill="#fb8072" stroke="transparent" points="999,-10 999,-30 1019,-30 1019,-10 999,-10"/>
<text text-anchor="start" x="1022.73" y="-15.4" font-family="Times-12" font-size="14.00"> &#160;Exports</text>
<g id="clust1" class="cluster">
<title>cluster_RootModule</title>
<polygon fill="none" stroke="black" stroke-dasharray="1,5" points="8,-70 8,-268 1674,-268 1674,-70 8,-70"/>
</g>
<g id="clust12" class="cluster">
<title>cluster_RootModule_imports</title>
<polygon fill="none" stroke="black" points="1518,-78 1518,-130 1666,-130 1666,-78 1518,-78"/>
</g>
<g id="clust14" class="cluster">
<title>cluster_RootModule_bootstrap</title>
<polygon fill="none" stroke="black" points="768,-208 768,-260 896,-260 896,-208 768,-208"/>
</g>
<g id="clust15" class="cluster">
<title>cluster_RootModule_providers</title>
<polygon fill="none" stroke="black" points="1251,-78 1251,-130 1510,-130 1510,-78 1251,-78"/>
</g>
<g id="clust2" class="cluster">
<title>cluster_RootModule_declarations</title>
<polygon fill="none" stroke="black" points="16,-78 16,-130 1243,-130 1243,-78 16,-78"/>
</g>
<!-- FooterComponent -->
<g id="node1" class="node">
<title>FooterComponent</title>
<polygon fill="#ffffb3" stroke="black" points="1234.88,-122 1117.12,-122 1117.12,-86 1234.88,-86 1234.88,-122"/>
<text text-anchor="middle" x="1176" y="-99.8" font-family="Times,serif" font-size="14.00">FooterComponent</text>
</g>
<!-- RootModule -->
<g id="node10" class="node">
<title>RootModule</title>
<polygon fill="#8dd3c7" stroke="black" points="875.28,-187 872.28,-191 851.28,-191 848.28,-187 788.72,-187 788.72,-151 875.28,-151 875.28,-187"/>
<text text-anchor="middle" x="832" y="-164.8" font-family="Times,serif" font-size="14.00">RootModule</text>
</g>
<!-- FooterComponent&#45;&gt;RootModule -->
<g id="edge1" class="edge">
<title>FooterComponent&#45;&gt;RootModule</title>
<path fill="none" stroke="black" d="M1176,-122.02C1176,-139.37 1176,-163 1176,-163 1176,-163 885.57,-163 885.57,-163"/>
<polygon fill="black" stroke="black" points="885.57,-159.5 875.57,-163 885.57,-166.5 885.57,-159.5"/>
</g>
<!-- HeaderComponent -->
<g id="node2" class="node">
<title>HeaderComponent</title>
<polygon fill="#ffffb3" stroke="black" points="1098.74,-122 977.26,-122 977.26,-86 1098.74,-86 1098.74,-122"/>
<text text-anchor="middle" x="1038" y="-99.8" font-family="Times,serif" font-size="14.00">HeaderComponent</text>
</g>
<!-- HeaderComponent&#45;&gt;RootModule -->
<g id="edge2" class="edge">
<title>HeaderComponent&#45;&gt;RootModule</title>
<path fill="none" stroke="black" d="M1038,-122.24C1038,-137.57 1038,-157 1038,-157 1038,-157 885.44,-157 885.44,-157"/>
<polygon fill="black" stroke="black" points="885.44,-153.5 875.44,-157 885.44,-160.5 885.44,-153.5"/>
</g>
<!-- HomeComponent -->
<g id="node3" class="node">
<title>HomeComponent</title>
<polygon fill="#ffffb3" stroke="black" points="958.55,-122 843.45,-122 843.45,-86 958.55,-86 958.55,-122"/>
<text text-anchor="middle" x="901" y="-99.8" font-family="Times,serif" font-size="14.00">HomeComponent</text>
</g>
<!-- HomeComponent&#45;&gt;RootModule -->
<g id="edge3" class="edge">
<title>HomeComponent&#45;&gt;RootModule</title>
<path fill="none" stroke="black" d="M859.31,-122.11C859.31,-122.11 859.31,-140.99 859.31,-140.99"/>
<polygon fill="black" stroke="black" points="855.81,-140.99 859.31,-150.99 862.81,-140.99 855.81,-140.99"/>
</g>
<!-- ImprintComponent -->
<g id="node4" class="node">
<title>ImprintComponent</title>
<polygon fill="#ffffb3" stroke="black" points="825.83,-122 702.17,-122 702.17,-86 825.83,-86 825.83,-122"/>
<text text-anchor="middle" x="764" y="-99.8" font-family="Times,serif" font-size="14.00">ImprintComponent</text>
</g>
<!-- ImprintComponent&#45;&gt;RootModule -->
<g id="edge4" class="edge">
<title>ImprintComponent&#45;&gt;RootModule</title>
<path fill="none" stroke="black" d="M807.14,-122.11C807.14,-122.11 807.14,-140.99 807.14,-140.99"/>
<polygon fill="black" stroke="black" points="803.64,-140.99 807.14,-150.99 810.64,-140.99 803.64,-140.99"/>
</g>
<!-- LearnComponent -->
<g id="node5" class="node">
<title>LearnComponent</title>
<polygon fill="#ffffb3" stroke="black" points="683.97,-122 570.03,-122 570.03,-86 683.97,-86 683.97,-122"/>
<text text-anchor="middle" x="627" y="-99.8" font-family="Times,serif" font-size="14.00">LearnComponent</text>
</g>
<!-- LearnComponent&#45;&gt;RootModule -->
<g id="edge5" class="edge">
<title>LearnComponent&#45;&gt;RootModule</title>
<path fill="none" stroke="black" d="M627,-122.24C627,-137.57 627,-157 627,-157 627,-157 778.52,-157 778.52,-157"/>
<polygon fill="black" stroke="black" points="778.52,-160.5 788.52,-157 778.52,-153.5 778.52,-160.5"/>
</g>
<!-- LoginComponent -->
<g id="node6" class="node">
<title>LoginComponent</title>
<polygon fill="#ffffb3" stroke="black" points="552.28,-122 437.72,-122 437.72,-86 552.28,-86 552.28,-122"/>
<text text-anchor="middle" x="495" y="-99.8" font-family="Times,serif" font-size="14.00">LoginComponent</text>
</g>
<!-- LoginComponent&#45;&gt;RootModule -->
<g id="edge6" class="edge">
<title>LoginComponent&#45;&gt;RootModule</title>
<path fill="none" stroke="black" d="M495,-122.02C495,-139.37 495,-163 495,-163 495,-163 778.63,-163 778.63,-163"/>
<polygon fill="black" stroke="black" points="778.63,-166.5 788.63,-163 778.63,-159.5 778.63,-166.5"/>
</g>
<!-- PrivacyComponent -->
<g id="node7" class="node">
<title>PrivacyComponent</title>
<polygon fill="#ffffb3" stroke="black" points="420.1,-122 295.9,-122 295.9,-86 420.1,-86 420.1,-122"/>
<text text-anchor="middle" x="358" y="-99.8" font-family="Times,serif" font-size="14.00">PrivacyComponent</text>
</g>
<!-- PrivacyComponent&#45;&gt;RootModule -->
<g id="edge7" class="edge">
<title>PrivacyComponent&#45;&gt;RootModule</title>
<path fill="none" stroke="black" d="M358,-122.11C358,-141.34 358,-169 358,-169 358,-169 778.68,-169 778.68,-169"/>
<polygon fill="black" stroke="black" points="778.68,-172.5 788.68,-169 778.68,-165.5 778.68,-172.5"/>
</g>
<!-- RegisterComponent -->
<g id="node8" class="node">
<title>RegisterComponent</title>
<polygon fill="#ffffb3" stroke="black" points="277.98,-122 150.02,-122 150.02,-86 277.98,-86 277.98,-122"/>
<text text-anchor="middle" x="214" y="-99.8" font-family="Times,serif" font-size="14.00">RegisterComponent</text>
</g>
<!-- RegisterComponent&#45;&gt;RootModule -->
<g id="edge8" class="edge">
<title>RegisterComponent&#45;&gt;RootModule</title>
<path fill="none" stroke="black" d="M214,-122.28C214,-143.32 214,-175 214,-175 214,-175 778.54,-175 778.54,-175"/>
<polygon fill="black" stroke="black" points="778.54,-178.5 788.54,-175 778.54,-171.5 778.54,-178.5"/>
</g>
<!-- RootComponent -->
<g id="node9" class="node">
<title>RootComponent</title>
<polygon fill="#ffffb3" stroke="black" points="132.06,-122 23.94,-122 23.94,-86 132.06,-86 132.06,-122"/>
<text text-anchor="middle" x="78" y="-99.8" font-family="Times,serif" font-size="14.00">RootComponent</text>
</g>
<!-- RootComponent&#45;&gt;RootModule -->
<g id="edge9" class="edge">
<title>RootComponent&#45;&gt;RootModule</title>
<path fill="none" stroke="black" d="M78,-122.25C78,-145.02 78,-181 78,-181 78,-181 778.48,-181 778.48,-181"/>
<polygon fill="black" stroke="black" points="778.48,-184.5 788.48,-181 778.48,-177.5 778.48,-184.5"/>
</g>
<!-- RootComponent  -->
<g id="node12" class="node">
<title>RootComponent </title>
<polygon fill="#80b1d3" stroke="black" points="888.06,-252 775.94,-252 775.94,-216 888.06,-216 888.06,-252"/>
<text text-anchor="middle" x="832" y="-229.8" font-family="Times,serif" font-size="14.00">RootComponent </text>
</g>
<!-- RootModule&#45;&gt;RootComponent  -->
<g id="edge11" class="edge">
<title>RootModule&#45;&gt;RootComponent </title>
<path fill="none" stroke="black" stroke-dasharray="1,5" d="M832,-187.11C832,-187.11 832,-205.99 832,-205.99"/>
<polygon fill="black" stroke="black" points="828.5,-205.99 832,-215.99 835.5,-205.99 828.5,-205.99"/>
</g>
<!-- RootRoutingModule -->
<g id="node11" class="node">
<title>RootRoutingModule</title>
<polygon fill="#8dd3c7" stroke="black" points="1657.89,-122 1654.89,-126 1633.89,-126 1630.89,-122 1526.11,-122 1526.11,-86 1657.89,-86 1657.89,-122"/>
<text text-anchor="middle" x="1592" y="-99.8" font-family="Times,serif" font-size="14.00">RootRoutingModule</text>
</g>
<!-- RootRoutingModule&#45;&gt;RootModule -->
<g id="edge10" class="edge">
<title>RootRoutingModule&#45;&gt;RootModule</title>
<path fill="none" stroke="black" d="M1592,-122.25C1592,-145.02 1592,-181 1592,-181 1592,-181 885.31,-181 885.31,-181"/>
<polygon fill="black" stroke="black" points="885.31,-177.5 875.31,-181 885.31,-184.5 885.31,-177.5"/>
</g>
<!-- ApiService -->
<g id="node13" class="node">
<title>ApiService</title>
<ellipse fill="#fdb462" stroke="black" cx="1448" cy="-104" rx="54.45" ry="18"/>
<text text-anchor="middle" x="1448" y="-99.8" font-family="Times,serif" font-size="14.00">ApiService</text>
</g>
<!-- ApiService&#45;&gt;RootModule -->
<g id="edge12" class="edge">
<title>ApiService&#45;&gt;RootModule</title>
<path fill="none" stroke="black" d="M1448,-122.28C1448,-143.32 1448,-175 1448,-175 1448,-175 885.32,-175 885.32,-175"/>
<polygon fill="black" stroke="black" points="885.32,-171.5 875.32,-175 885.32,-178.5 885.32,-171.5"/>
</g>
<!-- UserService -->
<g id="node14" class="node">
<title>UserService</title>
<ellipse fill="#fdb462" stroke="black" cx="1317" cy="-104" rx="58.44" ry="18"/>
<text text-anchor="middle" x="1317" y="-99.8" font-family="Times,serif" font-size="14.00">UserService</text>
</g>
<!-- UserService&#45;&gt;RootModule -->
<g id="edge13" class="edge">
<title>UserService&#45;&gt;RootModule</title>
<path fill="none" stroke="black" d="M1317,-122.11C1317,-141.34 1317,-169 1317,-169 1317,-169 885.47,-169 885.47,-169"/>
<polygon fill="black" stroke="black" points="885.47,-165.5 875.47,-169 885.47,-172.5 885.47,-165.5"/>
</g>
</g>
</svg>
