<?xml version="1.0" encoding="UTF-8" standalone="no"?>
<!DOCTYPE svg PUBLIC "-//W3C//DTD SVG 1.1//EN"
 "http://www.w3.org/Graphics/SVG/1.1/DTD/svg11.dtd">
<!-- Generated by graphviz version 2.47.0 (20210316.0004)
 -->
<!-- Title: dependencies Pages: 1 -->
<svg width="1958pt" height="284pt"
 viewBox="0.00 0.00 1958.00 284.00" xmlns="http://www.w3.org/2000/svg" xmlns:xlink="http://www.w3.org/1999/xlink">
<g id="graph0" class="graph" transform="scale(1 1) rotate(0) translate(4 280)">
<title>dependencies</title>
<polygon fill="white" stroke="transparent" points="-4,4 -4,-280 1954,-280 1954,4 -4,4"/>
<text text-anchor="start" x="954.01" y="-42.4" font-family="Times-12" font-weight="bold" font-size="14.00">Legend</text>
<polygon fill="#ffffb3" stroke="transparent" points="741,-10 741,-30 761,-30 761,-10 741,-10"/>
<text text-anchor="start" x="764.63" y="-15.4" font-family="Times-12" font-size="14.00"> &#160;Declarations</text>
<polygon fill="#8dd3c7" stroke="transparent" points="854,-10 854,-30 874,-30 874,-10 854,-10"/>
<text text-anchor="start" x="877.73" y="-15.4" font-family="Times-12" font-size="14.00"> &#160;Module</text>
<polygon fill="#80b1d3" stroke="transparent" points="940,-10 940,-30 960,-30 960,-10 940,-10"/>
<text text-anchor="start" x="963.78" y="-15.4" font-family="Times-12" font-size="14.00"> &#160;Bootstrap</text>
<polygon fill="#fdb462" stroke="transparent" points="1037,-10 1037,-30 1057,-30 1057,-10 1037,-10"/>
<text text-anchor="start" x="1060.67" y="-15.4" font-family="Times-12" font-size="14.00"> &#160;Providers</text>
<polygon fill="#fb8072" stroke="transparent" points="1133,-10 1133,-30 1153,-30 1153,-10 1133,-10"/>
<text text-anchor="start" x="1156.73" y="-15.4" font-family="Times-12" font-size="14.00"> &#160;Exports</text>
<g id="clust1" class="cluster">
<title>cluster_RootModule</title>
<polygon fill="none" stroke="black" stroke-dasharray="1,5" points="8,-70 8,-268 1942,-268 1942,-70 8,-70"/>
</g>
<g id="clust17" class="cluster">
<title>cluster_RootModule_providers</title>
<polygon fill="none" stroke="black" points="1675,-78 1675,-130 1934,-130 1934,-78 1675,-78"/>
</g>
<g id="clust14" class="cluster">
<title>cluster_RootModule_imports</title>
<polygon fill="none" stroke="black" points="1519,-78 1519,-130 1667,-130 1667,-78 1519,-78"/>
</g>
<g id="clust16" class="cluster">
<title>cluster_RootModule_bootstrap</title>
<polygon fill="none" stroke="black" points="905,-208 905,-260 1033,-260 1033,-208 905,-208"/>
</g>
<g id="clust2" class="cluster">
<title>cluster_RootModule_declarations</title>
<polygon fill="none" stroke="black" points="16,-78 16,-130 1511,-130 1511,-78 16,-78"/>
</g>
<!-- CheckComponent -->
<g id="node1" class="node">
<title>CheckComponent</title>
<polygon fill="#ffffb3" stroke="black" points="1502.6,-122 1385.4,-122 1385.4,-86 1502.6,-86 1502.6,-122"/>
<text text-anchor="middle" x="1444" y="-99.8" font-family="Times,serif" font-size="14.00">CheckComponent</text>
</g>
<!-- RootModule -->
<g id="node12" class="node">
<title>RootModule</title>
<polygon fill="#8dd3c7" stroke="black" points="1012.28,-187 1009.28,-191 988.28,-191 985.28,-187 925.72,-187 925.72,-151 1012.28,-151 1012.28,-187"/>
<text text-anchor="middle" x="969" y="-164.8" font-family="Times,serif" font-size="14.00">RootModule</text>
</g>
<!-- CheckComponent&#45;&gt;RootModule -->
<g id="edge1" class="edge">
<title>CheckComponent&#45;&gt;RootModule</title>
<path fill="none" stroke="black" d="M1444,-122.22C1444,-140.83 1444,-167 1444,-167 1444,-167 1022.41,-167 1022.41,-167"/>
<polygon fill="black" stroke="black" points="1022.41,-163.5 1012.41,-167 1022.41,-170.5 1022.41,-163.5"/>
</g>
<!-- ExamComponent -->
<g id="node2" class="node">
<title>ExamComponent</title>
<polygon fill="#ffffb3" stroke="black" points="1366.99,-122 1253.01,-122 1253.01,-86 1366.99,-86 1366.99,-122"/>
<text text-anchor="middle" x="1310" y="-99.8" font-family="Times,serif" font-size="14.00">ExamComponent</text>
</g>
<!-- ExamComponent&#45;&gt;RootModule -->
<g id="edge2" class="edge">
<title>ExamComponent&#45;&gt;RootModule</title>
<path fill="none" stroke="black" d="M1310,-122.03C1310,-139.06 1310,-162 1310,-162 1310,-162 1022.53,-162 1022.53,-162"/>
<polygon fill="black" stroke="black" points="1022.53,-158.5 1012.53,-162 1022.53,-165.5 1022.53,-158.5"/>
</g>
<!-- FooterComponent -->
<g id="node3" class="node">
<title>FooterComponent</title>
<polygon fill="#ffffb3" stroke="black" points="1234.88,-122 1117.12,-122 1117.12,-86 1234.88,-86 1234.88,-122"/>
<text text-anchor="middle" x="1176" y="-99.8" font-family="Times,serif" font-size="14.00">FooterComponent</text>
</g>
<!-- FooterComponent&#45;&gt;RootModule -->
<g id="edge3" class="edge">
<title>FooterComponent&#45;&gt;RootModule</title>
<path fill="none" stroke="black" d="M1176,-122.24C1176,-137.57 1176,-157 1176,-157 1176,-157 1022.39,-157 1022.39,-157"/>
<polygon fill="black" stroke="black" points="1022.39,-153.5 1012.39,-157 1022.39,-160.5 1022.39,-153.5"/>
</g>
<!-- HeaderComponent -->
<g id="node4" class="node">
<title>HeaderComponent</title>
<polygon fill="#ffffb3" stroke="black" points="1098.74,-122 977.26,-122 977.26,-86 1098.74,-86 1098.74,-122"/>
<text text-anchor="middle" x="1038" y="-99.8" font-family="Times,serif" font-size="14.00">HeaderComponent</text>
</g>
<!-- HeaderComponent&#45;&gt;RootModule -->
<g id="edge4" class="edge">
<title>HeaderComponent&#45;&gt;RootModule</title>
<path fill="none" stroke="black" d="M994.76,-122.11C994.76,-122.11 994.76,-140.99 994.76,-140.99"/>
<polygon fill="black" stroke="black" points="991.26,-140.99 994.76,-150.99 998.26,-140.99 991.26,-140.99"/>
</g>
<!-- HomeComponent -->
<g id="node5" class="node">
<title>HomeComponent</title>
<polygon fill="#ffffb3" stroke="black" points="958.55,-122 843.45,-122 843.45,-86 958.55,-86 958.55,-122"/>
<text text-anchor="middle" x="901" y="-99.8" font-family="Times,serif" font-size="14.00">HomeComponent</text>
</g>
<!-- HomeComponent&#45;&gt;RootModule -->
<g id="edge5" class="edge">
<title>HomeComponent&#45;&gt;RootModule</title>
<path fill="none" stroke="black" d="M942.19,-122.11C942.19,-122.11 942.19,-140.99 942.19,-140.99"/>
<polygon fill="black" stroke="black" points="938.69,-140.99 942.19,-150.99 945.69,-140.99 938.69,-140.99"/>
</g>
<!-- ImprintComponent -->
<g id="node6" class="node">
<title>ImprintComponent</title>
<polygon fill="#ffffb3" stroke="black" points="825.83,-122 702.17,-122 702.17,-86 825.83,-86 825.83,-122"/>
<text text-anchor="middle" x="764" y="-99.8" font-family="Times,serif" font-size="14.00">ImprintComponent</text>
</g>
<!-- ImprintComponent&#45;&gt;RootModule -->
<g id="edge6" class="edge">
<title>ImprintComponent&#45;&gt;RootModule</title>
<path fill="none" stroke="black" d="M764,-122.24C764,-137.57 764,-157 764,-157 764,-157 915.52,-157 915.52,-157"/>
<polygon fill="black" stroke="black" points="915.52,-160.5 925.52,-157 915.52,-153.5 915.52,-160.5"/>
</g>
<!-- LearnComponent -->
<g id="node7" class="node">
<title>LearnComponent</title>
<polygon fill="#ffffb3" stroke="black" points="683.97,-122 570.03,-122 570.03,-86 683.97,-86 683.97,-122"/>
<text text-anchor="middle" x="627" y="-99.8" font-family="Times,serif" font-size="14.00">LearnComponent</text>
</g>
<!-- LearnComponent&#45;&gt;RootModule -->
<g id="edge7" class="edge">
<title>LearnComponent&#45;&gt;RootModule</title>
<path fill="none" stroke="black" d="M627,-122.03C627,-139.06 627,-162 627,-162 627,-162 915.69,-162 915.69,-162"/>
<polygon fill="black" stroke="black" points="915.69,-165.5 925.69,-162 915.69,-158.5 915.69,-165.5"/>
</g>
<!-- LoginComponent -->
<g id="node8" class="node">
<title>LoginComponent</title>
<polygon fill="#ffffb3" stroke="black" points="552.28,-122 437.72,-122 437.72,-86 552.28,-86 552.28,-122"/>
<text text-anchor="middle" x="495" y="-99.8" font-family="Times,serif" font-size="14.00">LoginComponent</text>
</g>
<!-- LoginComponent&#45;&gt;RootModule -->
<g id="edge8" class="edge">
<title>LoginComponent&#45;&gt;RootModule</title>
<path fill="none" stroke="black" d="M495,-122.22C495,-140.83 495,-167 495,-167 495,-167 915.68,-167 915.68,-167"/>
<polygon fill="black" stroke="black" points="915.68,-170.5 925.68,-167 915.68,-163.5 915.68,-170.5"/>
</g>
<!-- PrivacyComponent -->
<g id="node9" class="node">
<title>PrivacyComponent</title>
<polygon fill="#ffffb3" stroke="black" points="420.1,-122 295.9,-122 295.9,-86 420.1,-86 420.1,-122"/>
<text text-anchor="middle" x="358" y="-99.8" font-family="Times,serif" font-size="14.00">PrivacyComponent</text>
</g>
<!-- PrivacyComponent&#45;&gt;RootModule -->
<g id="edge9" class="edge">
<title>PrivacyComponent&#45;&gt;RootModule</title>
<path fill="none" stroke="black" d="M358,-122.22C358,-142.37 358,-172 358,-172 358,-172 915.55,-172 915.55,-172"/>
<polygon fill="black" stroke="black" points="915.55,-175.5 925.55,-172 915.55,-168.5 915.55,-175.5"/>
</g>
<!-- RegisterComponent -->
<g id="node10" class="node">
<title>RegisterComponent</title>
<polygon fill="#ffffb3" stroke="black" points="277.98,-122 150.02,-122 150.02,-86 277.98,-86 277.98,-122"/>
<text text-anchor="middle" x="214" y="-99.8" font-family="Times,serif" font-size="14.00">RegisterComponent</text>
</g>
<!-- RegisterComponent&#45;&gt;RootModule -->
<g id="edge10" class="edge">
<title>RegisterComponent&#45;&gt;RootModule</title>
<path fill="none" stroke="black" d="M214,-122.04C214,-143.66 214,-177 214,-177 214,-177 915.7,-177 915.7,-177"/>
<polygon fill="black" stroke="black" points="915.7,-180.5 925.7,-177 915.7,-173.5 915.7,-180.5"/>
</g>
<!-- RootComponent -->
<g id="node11" class="node">
<title>RootComponent</title>
<polygon fill="#ffffb3" stroke="black" points="132.06,-122 23.94,-122 23.94,-86 132.06,-86 132.06,-122"/>
<text text-anchor="middle" x="78" y="-99.8" font-family="Times,serif" font-size="14.00">RootComponent</text>
</g>
<!-- RootComponent&#45;&gt;RootModule -->
<g id="edge11" class="edge">
<title>RootComponent&#45;&gt;RootModule</title>
<path fill="none" stroke="black" d="M78,-122.09C78,-145.13 78,-182 78,-182 78,-182 915.42,-182 915.42,-182"/>
<polygon fill="black" stroke="black" points="915.42,-185.5 925.42,-182 915.42,-178.5 915.42,-185.5"/>
</g>
<!-- RootComponent  -->
<g id="node14" class="node">
<title>RootComponent </title>
<polygon fill="#80b1d3" stroke="black" points="1025.06,-252 912.94,-252 912.94,-216 1025.06,-216 1025.06,-252"/>
<text text-anchor="middle" x="969" y="-229.8" font-family="Times,serif" font-size="14.00">RootComponent </text>
</g>
<!-- RootModule&#45;&gt;RootComponent  -->
<g id="edge13" class="edge">
<title>RootModule&#45;&gt;RootComponent </title>
<path fill="none" stroke="black" stroke-dasharray="1,5" d="M969,-187.11C969,-187.11 969,-205.99 969,-205.99"/>
<polygon fill="black" stroke="black" points="965.5,-205.99 969,-215.99 972.5,-205.99 965.5,-205.99"/>
</g>
<!-- RootRoutingModule -->
<g id="node13" class="node">
<title>RootRoutingModule</title>
<polygon fill="#8dd3c7" stroke="black" points="1658.89,-122 1655.89,-126 1634.89,-126 1631.89,-122 1527.11,-122 1527.11,-86 1658.89,-86 1658.89,-122"/>
<text text-anchor="middle" x="1593" y="-99.8" font-family="Times,serif" font-size="14.00">RootRoutingModule</text>
</g>
<!-- RootRoutingModule&#45;&gt;RootModule -->
<g id="edge12" class="edge">
<title>RootRoutingModule&#45;&gt;RootModule</title>
<path fill="none" stroke="black" d="M1593,-122.22C1593,-142.37 1593,-172 1593,-172 1593,-172 1022.38,-172 1022.38,-172"/>
<polygon fill="black" stroke="black" points="1022.38,-168.5 1012.38,-172 1022.38,-175.5 1022.38,-168.5"/>
</g>
<!-- ApiService -->
<g id="node15" class="node">
<title>ApiService</title>
<ellipse fill="#fdb462" stroke="black" cx="1872" cy="-104" rx="54.45" ry="18"/>
<text text-anchor="middle" x="1872" y="-99.8" font-family="Times,serif" font-size="14.00">ApiService</text>
</g>
<!-- ApiService&#45;&gt;RootModule -->
<g id="edge14" class="edge">
<title>ApiService&#45;&gt;RootModule</title>
<path fill="none" stroke="black" d="M1872,-122.09C1872,-145.13 1872,-182 1872,-182 1872,-182 1022.55,-182 1022.55,-182"/>
<polygon fill="black" stroke="black" points="1022.55,-178.5 1012.55,-182 1022.55,-185.5 1022.55,-178.5"/>
</g>
<!-- UserService -->
<g id="node16" class="node">
<title>UserService</title>
<ellipse fill="#fdb462" stroke="black" cx="1741" cy="-104" rx="58.44" ry="18"/>
<text text-anchor="middle" x="1741" y="-99.8" font-family="Times,serif" font-size="14.00">UserService</text>
</g>
<!-- UserService&#45;&gt;RootModule -->
<g id="edge15" class="edge">
<title>UserService&#45;&gt;RootModule</title>
<path fill="none" stroke="black" d="M1741,-122.04C1741,-143.66 1741,-177 1741,-177 1741,-177 1022.44,-177 1022.44,-177"/>
<polygon fill="black" stroke="black" points="1022.44,-173.5 1012.44,-177 1022.44,-180.5 1022.44,-173.5"/>
</g>
</g>
</svg>
