<?xml version="1.0" encoding="UTF-8" standalone="no"?>
<!DOCTYPE svg PUBLIC "-//W3C//DTD SVG 1.1//EN"
 "http://www.w3.org/Graphics/SVG/1.1/DTD/svg11.dtd">
<!-- Generated by graphviz version 2.47.0 (20210316.0004)
 -->
<!-- Title: dependencies Pages: 1 -->
<svg width="1690pt" height="284pt"
 viewBox="0.00 0.00 1690.00 284.00" xmlns="http://www.w3.org/2000/svg" xmlns:xlink="http://www.w3.org/1999/xlink">
<g id="graph0" class="graph" transform="scale(1 1) rotate(0) translate(4 280)">
<title>dependencies</title>
<polygon fill="white" stroke="transparent" points="-4,4 -4,-280 1686,-280 1686,4 -4,4"/>
<text text-anchor="start" x="820.01" y="-42.4" font-family="Times-12" font-weight="bold" font-size="14.00">Legend</text>
<polygon fill="#ffffb3" stroke="transparent" points="607,-10 607,-30 627,-30 627,-10 607,-10"/>
<text text-anchor="start" x="630.63" y="-15.4" font-family="Times-12" font-size="14.00"> &#160;Declarations</text>
<polygon fill="#8dd3c7" stroke="transparent" points="720,-10 720,-30 740,-30 740,-10 720,-10"/>
<text text-anchor="start" x="743.73" y="-15.4" font-family="Times-12" font-size="14.00"> &#160;Module</text>
<polygon fill="#80b1d3" stroke="transparent" points="806,-10 806,-30 826,-30 826,-10 806,-10"/>
<text text-anchor="start" x="829.78" y="-15.4" font-family="Times-12" font-size="14.00"> &#160;Bootstrap</text>
<polygon fill="#fdb462" stroke="transparent" points="903,-10 903,-30 923,-30 923,-10 903,-10"/>
<text text-anchor="start" x="926.67" y="-15.4" font-family="Times-12" font-size="14.00"> &#160;Providers</text>
<polygon fill="#fb8072" stroke="transparent" points="999,-10 999,-30 1019,-30 1019,-10 999,-10"/>
<text text-anchor="start" x="1022.73" y="-15.4" font-family="Times-12" font-size="14.00"> &#160;Exports</text>
<g id="clust1" class="cluster">
<title>cluster_RootModule</title>
<polygon fill="none" stroke="black" stroke-dasharray="1,5" points="8,-70 8,-268 1674,-268 1674,-70 8,-70"/>
</g>
<g id="clust2" class="cluster">
<title>cluster_RootModule_declarations</title>
<polygon fill="none" stroke="black" points="439,-78 439,-130 1666,-130 1666,-78 439,-78"/>
</g>
<g id="clust12" class="cluster">
<title>cluster_RootModule_imports</title>
<polygon fill="none" stroke="black" points="283,-78 283,-130 431,-130 431,-78 283,-78"/>
</g>
<g id="clust14" class="cluster">
<title>cluster_RootModule_bootstrap</title>
<polygon fill="none" stroke="black" points="785,-208 785,-260 913,-260 913,-208 785,-208"/>
</g>
<g id="clust15" class="cluster">
<title>cluster_RootModule_providers</title>
<polygon fill="none" stroke="black" points="16,-78 16,-130 275,-130 275,-78 16,-78"/>
</g>
<!-- FooterComponent -->
<g id="node1" class="node">
<title>FooterComponent</title>
<polygon fill="#ffffb3" stroke="black" points="1657.88,-122 1540.12,-122 1540.12,-86 1657.88,-86 1657.88,-122"/>
<text text-anchor="middle" x="1599" y="-99.8" font-family="Times,serif" font-size="14.00">FooterComponent</text>
</g>
<!-- RootModule -->
<g id="node10" class="node">
<title>RootModule</title>
<polygon fill="#8dd3c7" stroke="black" points="892.28,-187 889.28,-191 868.28,-191 865.28,-187 805.72,-187 805.72,-151 892.28,-151 892.28,-187"/>
<text text-anchor="middle" x="849" y="-164.8" font-family="Times,serif" font-size="14.00">RootModule</text>
</g>
<!-- FooterComponent&#45;&gt;RootModule -->
<g id="edge1" class="edge">
<title>FooterComponent&#45;&gt;RootModule</title>
<path fill="none" stroke="black" d="M1599,-122.25C1599,-145.02 1599,-181 1599,-181 1599,-181 902.29,-181 902.29,-181"/>
<polygon fill="black" stroke="black" points="902.29,-177.5 892.29,-181 902.29,-184.5 902.29,-177.5"/>
</g>
<!-- HeaderComponent -->
<g id="node2" class="node">
<title>HeaderComponent</title>
<polygon fill="#ffffb3" stroke="black" points="1521.74,-122 1400.26,-122 1400.26,-86 1521.74,-86 1521.74,-122"/>
<text text-anchor="middle" x="1461" y="-99.8" font-family="Times,serif" font-size="14.00">HeaderComponent</text>
</g>
<!-- HeaderComponent&#45;&gt;RootModule -->
<g id="edge2" class="edge">
<title>HeaderComponent&#45;&gt;RootModule</title>
<path fill="none" stroke="black" d="M1461,-122.28C1461,-143.32 1461,-175 1461,-175 1461,-175 902.52,-175 902.52,-175"/>
<polygon fill="black" stroke="black" points="902.52,-171.5 892.52,-175 902.52,-178.5 902.52,-171.5"/>
</g>
<!-- HomeComponent -->
<g id="node3" class="node">
<title>HomeComponent</title>
<polygon fill="#ffffb3" stroke="black" points="1381.55,-122 1266.45,-122 1266.45,-86 1381.55,-86 1381.55,-122"/>
<text text-anchor="middle" x="1324" y="-99.8" font-family="Times,serif" font-size="14.00">HomeComponent</text>
</g>
<!-- HomeComponent&#45;&gt;RootModule -->
<g id="edge3" class="edge">
<title>HomeComponent&#45;&gt;RootModule</title>
<path fill="none" stroke="black" d="M1324,-122.11C1324,-141.34 1324,-169 1324,-169 1324,-169 902.41,-169 902.41,-169"/>
<polygon fill="black" stroke="black" points="902.41,-165.5 892.41,-169 902.41,-172.5 902.41,-165.5"/>
</g>
<!-- ImprintComponent -->
<g id="node4" class="node">
<title>ImprintComponent</title>
<polygon fill="#ffffb3" stroke="black" points="1248.83,-122 1125.17,-122 1125.17,-86 1248.83,-86 1248.83,-122"/>
<text text-anchor="middle" x="1187" y="-99.8" font-family="Times,serif" font-size="14.00">ImprintComponent</text>
</g>
<!-- ImprintComponent&#45;&gt;RootModule -->
<g id="edge4" class="edge">
<title>ImprintComponent&#45;&gt;RootModule</title>
<path fill="none" stroke="black" d="M1187,-122.02C1187,-139.37 1187,-163 1187,-163 1187,-163 902.5,-163 902.5,-163"/>
<polygon fill="black" stroke="black" points="902.5,-159.5 892.5,-163 902.5,-166.5 902.5,-159.5"/>
</g>
<!-- LearnComponent -->
<g id="node5" class="node">
<title>LearnComponent</title>
<polygon fill="#ffffb3" stroke="black" points="1106.97,-122 993.03,-122 993.03,-86 1106.97,-86 1106.97,-122"/>
<text text-anchor="middle" x="1050" y="-99.8" font-family="Times,serif" font-size="14.00">LearnComponent</text>
</g>
<!-- LearnComponent&#45;&gt;RootModule -->
<g id="edge5" class="edge">
<title>LearnComponent&#45;&gt;RootModule</title>
<path fill="none" stroke="black" d="M1050,-122.24C1050,-137.57 1050,-157 1050,-157 1050,-157 902.61,-157 902.61,-157"/>
<polygon fill="black" stroke="black" points="902.61,-153.5 892.61,-157 902.61,-160.5 902.61,-153.5"/>
</g>
<!-- LoginComponent -->
<g id="node6" class="node">
<title>LoginComponent</title>
<polygon fill="#ffffb3" stroke="black" points="975.28,-122 860.72,-122 860.72,-86 975.28,-86 975.28,-122"/>
<text text-anchor="middle" x="918" y="-99.8" font-family="Times,serif" font-size="14.00">LoginComponent</text>
</g>
<!-- LoginComponent&#45;&gt;RootModule -->
<g id="edge6" class="edge">
<title>LoginComponent&#45;&gt;RootModule</title>
<path fill="none" stroke="black" d="M876.5,-122.11C876.5,-122.11 876.5,-140.99 876.5,-140.99"/>
<polygon fill="black" stroke="black" points="873,-140.99 876.5,-150.99 880,-140.99 873,-140.99"/>
</g>
<!-- PrivacyComponent -->
<g id="node7" class="node">
<title>PrivacyComponent</title>
<polygon fill="#ffffb3" stroke="black" points="843.1,-122 718.9,-122 718.9,-86 843.1,-86 843.1,-122"/>
<text text-anchor="middle" x="781" y="-99.8" font-family="Times,serif" font-size="14.00">PrivacyComponent</text>
</g>
<!-- PrivacyComponent&#45;&gt;RootModule -->
<g id="edge7" class="edge">
<title>PrivacyComponent&#45;&gt;RootModule</title>
<path fill="none" stroke="black" d="M824.33,-122.11C824.33,-122.11 824.33,-140.99 824.33,-140.99"/>
<polygon fill="black" stroke="black" points="820.83,-140.99 824.33,-150.99 827.83,-140.99 820.83,-140.99"/>
</g>
<!-- RegisterComponent -->
<g id="node8" class="node">
<title>RegisterComponent</title>
<polygon fill="#ffffb3" stroke="black" points="700.98,-122 573.02,-122 573.02,-86 700.98,-86 700.98,-122"/>
<text text-anchor="middle" x="637" y="-99.8" font-family="Times,serif" font-size="14.00">RegisterComponent</text>
</g>
<!-- RegisterComponent&#45;&gt;RootModule -->
<g id="edge8" class="edge">
<title>RegisterComponent&#45;&gt;RootModule</title>
<path fill="none" stroke="black" d="M637,-122.24C637,-137.57 637,-157 637,-157 637,-157 795.59,-157 795.59,-157"/>
<polygon fill="black" stroke="black" points="795.59,-160.5 805.59,-157 795.59,-153.5 795.59,-160.5"/>
</g>
<!-- RootComponent -->
<g id="node9" class="node">
<title>RootComponent</title>
<polygon fill="#ffffb3" stroke="black" points="555.06,-122 446.94,-122 446.94,-86 555.06,-86 555.06,-122"/>
<text text-anchor="middle" x="501" y="-99.8" font-family="Times,serif" font-size="14.00">RootComponent</text>
</g>
<!-- RootComponent&#45;&gt;RootModule -->
<g id="edge9" class="edge">
<title>RootComponent&#45;&gt;RootModule</title>
<path fill="none" stroke="black" d="M501,-122.02C501,-139.37 501,-163 501,-163 501,-163 795.63,-163 795.63,-163"/>
<polygon fill="black" stroke="black" points="795.63,-166.5 805.63,-163 795.63,-159.5 795.63,-166.5"/>
</g>
<!-- RootComponent  -->
<g id="node12" class="node">
<title>RootComponent </title>
<polygon fill="#80b1d3" stroke="black" points="905.06,-252 792.94,-252 792.94,-216 905.06,-216 905.06,-252"/>
<text text-anchor="middle" x="849" y="-229.8" font-family="Times,serif" font-size="14.00">RootComponent </text>
</g>
<!-- RootModule&#45;&gt;RootComponent  -->
<g id="edge11" class="edge">
<title>RootModule&#45;&gt;RootComponent </title>
<path fill="none" stroke="black" stroke-dasharray="1,5" d="M849,-187.11C849,-187.11 849,-205.99 849,-205.99"/>
<polygon fill="black" stroke="black" points="845.5,-205.99 849,-215.99 852.5,-205.99 845.5,-205.99"/>
</g>
<!-- RootRoutingModule -->
<g id="node11" class="node">
<title>RootRoutingModule</title>
<polygon fill="#8dd3c7" stroke="black" points="422.89,-122 419.89,-126 398.89,-126 395.89,-122 291.11,-122 291.11,-86 422.89,-86 422.89,-122"/>
<text text-anchor="middle" x="357" y="-99.8" font-family="Times,serif" font-size="14.00">RootRoutingModule</text>
</g>
<!-- RootRoutingModule&#45;&gt;RootModule -->
<g id="edge10" class="edge">
<title>RootRoutingModule&#45;&gt;RootModule</title>
<path fill="none" stroke="black" d="M357,-122.11C357,-141.34 357,-169 357,-169 357,-169 795.34,-169 795.34,-169"/>
<polygon fill="black" stroke="black" points="795.34,-172.5 805.34,-169 795.34,-165.5 795.34,-172.5"/>
</g>
<!-- ApiService -->
<g id="node13" class="node">
<title>ApiService</title>
<ellipse fill="#fdb462" stroke="black" cx="213" cy="-104" rx="54.45" ry="18"/>
<text text-anchor="middle" x="213" y="-99.8" font-family="Times,serif" font-size="14.00">ApiService</text>
</g>
<!-- ApiService&#45;&gt;RootModule -->
<g id="edge12" class="edge">
<title>ApiService&#45;&gt;RootModule</title>
<path fill="none" stroke="black" d="M213,-122.28C213,-143.32 213,-175 213,-175 213,-175 795.29,-175 795.29,-175"/>
<polygon fill="black" stroke="black" points="795.29,-178.5 805.29,-175 795.29,-171.5 795.29,-178.5"/>
</g>
<!-- UserService -->
<g id="node14" class="node">
<title>UserService</title>
<ellipse fill="#fdb462" stroke="black" cx="82" cy="-104" rx="58.44" ry="18"/>
<text text-anchor="middle" x="82" y="-99.8" font-family="Times,serif" font-size="14.00">UserService</text>
</g>
<!-- UserService&#45;&gt;RootModule -->
<g id="edge13" class="edge">
<title>UserService&#45;&gt;RootModule</title>
<path fill="none" stroke="black" d="M82,-122.25C82,-145.02 82,-181 82,-181 82,-181 795.57,-181 795.57,-181"/>
<polygon fill="black" stroke="black" points="795.57,-184.5 805.57,-181 795.57,-177.5 795.57,-184.5"/>
</g>
</g>
</svg>
